<svg width="32" height="32" version="1.1" viewBox="0 0 32 32" xmlns="http://www.w3.org/2000/svg">
 <path d="m0 2h32v28h-32z" fill="#41494e" style="paint-order:fill markers stroke"/>
 <path d="m1 3h30v26h-30z" fill="#cc8c32" style="paint-order:fill markers stroke"/>
 <path d="m2 8h28v20h-28z" fill="#fff" style="paint-order:fill markers stroke"/>
 <path d="m2 5h8v3h-8z" fill="#d5af44" style="paint-order:fill markers stroke"/>
 <path d="m10 5h8v3h-8z" fill="#9e8232" style="paint-order:fill markers stroke"/>
 <path d="m4 10v3h24v-3h-12z" fill="#d5af44" style="paint-order:fill markers stroke"/>
 <path d="m4 14v3h24v-3h-12z" fill="#d5af44" style="paint-order:fill markers stroke"/>
 <path d="m4 18v3h24v-3h-12z" fill="#d5af44" style="paint-order:fill markers stroke"/>
 <path d="m4 22v3h24v-3h-12z" fill="#d5af44" style="paint-order:fill markers stroke"/>
 <path d="m8 6h1v1h-1z" fill="#fff" style="paint-order:fill markers stroke"/>
 <path d="m16 6h1v1h-1z" fill="#fff" style="paint-order:fill markers stroke"/>
</svg>
